<svg width="505" height="128" viewBox="0 0 505 128" fill="none" xmlns="http://www.w3.org/2000/svg">
<g clip-path="url(#clip0_259_125)">
<rect width="505" height="128" fill="#68742C"/>
<path d="M375.798 -10.2753C356.179 -5.36428 347.059 64.0461 371.962 56.9449C396.866 49.8438 404.738 43.8633 413.337 35.0936C421.936 26.324 426.391 6.49711 416.331 -5.73851C406.239 -18.0139 395.416 -15.1863 375.798 -10.2753Z" fill="#C0A427"/>
<path d="M375.798 87.7247C356.179 92.6357 347.059 162.046 371.962 154.945C396.866 147.844 404.738 141.863 413.337 133.094C421.936 124.324 426.391 104.497 416.331 92.2615C406.239 79.9861 395.416 82.8137 375.798 87.7247Z" fill="#C0A427"/>
<path d="M471.789 26.7247C452.171 31.6357 443.05 101.046 467.954 93.9449C492.857 86.8438 500.73 80.8633 509.329 72.0936C517.927 63.324 522.382 43.4971 512.323 31.2615C502.23 18.9861 491.408 21.8137 471.789 26.7247Z" fill="#C0A427"/>
</g>
<defs>
<clipPath id="clip0_259_125">
<rect width="505" height="128" fill="white"/>
</clipPath>
</defs>
</svg>
